<?xml version="1.0" encoding="utf-8"?>
<!-- Generator: Adobe Illustrator 21.1.0, SVG Export Plug-In . SVG Version: 6.00 Build 0)  -->
<svg version="1.1" id="Layer_1" xmlns="http://www.w3.org/2000/svg" xmlns:xlink="http://www.w3.org/1999/xlink" x="0px" y="0px"
	 viewBox="0 0 106 128" style="enable-background:new 0 0 106 128;" xml:space="preserve">
<style type="text/css">
	.st0{fill:#B3B3B3;}
</style>
<path class="st0" d="M102.8,54.5c0-27.6-22.4-50-50-50s-50,22.4-50,50c0,12.6,4.7,24.1,12.4,32.9c12.5,12.6,25.1,25.1,37.6,37.7
	c9.1-9.1,29-29,38-38.1l0,0c0,0,0,0,0,0C98.3,78.2,102.8,66.9,102.8,54.5z M52.8,71.6c-10.8,0-19.6-8.8-19.6-19.6S42,32.5,52.8,32.5
	s19.6,8.8,19.6,19.6S63.6,71.6,52.8,71.6z"/>
<g>
</g>
<g>
</g>
<g>
</g>
<g>
</g>
<g>
</g>
</svg>
