<?xml version="1.0" encoding="utf-8"?>
<!-- Generator: Adobe Illustrator 21.1.0, SVG Export Plug-In . SVG Version: 6.00 Build 0)  -->
<svg version="1.1" id="Layer_1" xmlns="http://www.w3.org/2000/svg" xmlns:xlink="http://www.w3.org/1999/xlink" x="0px" y="0px"
	 viewBox="0 0 124.5 122.9" style="enable-background:new 0 0 124.5 122.9;" xml:space="preserve">
<style type="text/css">
	.st0{fill:#FFFFFF;stroke:#000000;stroke-width:3;stroke-miterlimit:10;}
	.st1{fill:#9E5091;stroke:#000000;stroke-width:3;stroke-miterlimit:10;}
	.st2{fill:none;stroke:#000000;stroke-width:3;stroke-miterlimit:10;}
</style>
<path class="st0" d="M4.8,112.9c0,3.7,2.3,6.6,5.2,6.6h104.7c2.9,0,5.2-3,5.2-6.6V36.2H4.8V112.9z"/>
<rect x="21.6" y="51" class="st0" width="21" height="21"/>
<rect x="51.8" y="51" class="st0" width="21" height="21"/>
<rect x="82.3" y="51" class="st0" width="21" height="21"/>
<rect x="21.8" y="80.9" class="st0" width="21" height="21"/>
<rect x="52.1" y="80.9" class="st0" width="21" height="21"/>
<rect x="82.5" y="80.9" class="st0" width="21" height="21"/>
<path class="st1" d="M119.9,17c0-3.7-2.3-6.6-5.2-6.6H10c-2.9,0-5.2,3-5.2,6.6v19.2h115.1V17z"/>
<line class="st2" x1="28.9" y1="1.8" x2="28.9" y2="18.7"/>
<line class="st2" x1="37.9" y1="1.8" x2="37.9" y2="18.7"/>
<line class="st2" x1="87.7" y1="1.8" x2="87.7" y2="18.8"/>
<line class="st2" x1="96.7" y1="1.8" x2="96.7" y2="18.8"/>
<g>
</g>
<g>
</g>
<g>
</g>
<g>
</g>
<g>
</g>
</svg>
